<svg width="672" height="672" viewBox="0 0 672 672" fill="none" xmlns="http://www.w3.org/2000/svg">
<mask id="mask0_2_16" style="mask-type:luminance" maskUnits="userSpaceOnUse" x="0" y="0" width="672" height="672">
<path d="M0 0H671.786V671.786H0V0Z" fill="white"/>
</mask>
<g mask="url(#mask0_2_16)">
<path d="M335.896 0C244.672 0 233.234 0.385417 197.406 2.02083C161.651 3.65104 137.234 9.32813 115.87 17.6302C93.7813 26.2135 75.0521 37.7031 56.375 56.375C37.7031 75.0469 26.2188 93.7813 17.6354 115.87C9.33333 137.234 3.65104 161.651 2.02083 197.406C0.385417 233.229 0 244.672 0 335.896C0 427.115 0.385417 438.552 2.02083 474.38C3.65104 510.135 9.33333 534.552 17.6354 555.917C26.2188 578.005 37.7031 596.734 56.375 615.411C75.0521 634.083 93.7813 645.568 115.87 654.151C137.234 662.458 161.651 668.135 197.406 669.766C233.234 671.401 244.672 671.786 335.896 671.786C427.12 671.786 438.557 671.401 474.38 669.766C510.135 668.135 534.552 662.458 555.917 654.151C578.005 645.568 596.74 634.083 615.411 615.411C634.083 596.734 645.573 578.005 654.156 555.917C662.458 534.552 668.135 510.135 669.766 474.38C671.401 438.552 671.786 427.115 671.786 335.896C671.786 244.672 671.401 233.229 669.766 197.406C668.135 161.651 662.458 137.234 654.156 115.87C645.573 93.7813 634.083 75.0469 615.411 56.375C596.74 37.7031 578.005 26.2135 555.917 17.6302C534.552 9.32813 510.135 3.65104 474.38 2.02083C438.557 0.385417 427.12 0 335.896 0ZM335.896 60.5208C425.583 60.5208 436.203 60.8646 471.625 62.4792C504.375 63.974 522.156 69.4427 533.995 74.0417C549.672 80.1354 560.865 87.4167 572.615 99.1719C584.37 110.922 591.651 122.115 597.745 137.792C602.344 149.63 607.813 167.411 609.307 200.161C610.922 235.583 611.266 246.203 611.266 335.896C611.266 425.578 610.922 436.203 609.307 471.625C607.813 504.37 602.344 522.156 597.745 533.995C591.651 549.672 584.37 560.859 572.615 572.615C560.865 584.37 549.672 591.646 533.995 597.74C522.156 602.344 504.375 607.813 471.625 609.307C436.208 610.922 425.589 611.266 335.896 611.266C246.198 611.266 235.578 610.922 200.161 609.307C167.417 607.813 149.63 602.344 137.792 597.74C122.115 591.646 110.927 584.37 99.1719 572.615C87.4167 560.859 80.1406 549.672 74.0469 533.995C69.4479 522.156 63.974 504.37 62.4792 471.625C60.8646 436.203 60.5208 425.578 60.5208 335.896C60.5208 246.203 60.8646 235.583 62.4792 200.161C63.974 167.411 69.4479 149.63 74.0469 137.792C80.1406 122.115 87.4167 110.922 99.1719 99.1719C110.927 87.4167 122.115 80.1354 137.792 74.0417C149.63 69.4427 167.417 63.974 200.161 62.4792C235.583 60.8646 246.208 60.5208 335.896 60.5208Z" fill="white"/>
</g>
<path d="M335.896 447.859C274.057 447.859 223.927 397.729 223.927 335.896C223.927 274.057 274.057 223.927 335.896 223.927C397.729 223.927 447.859 274.057 447.859 335.896C447.859 397.729 397.729 447.859 335.896 447.859ZM335.896 163.406C240.63 163.406 163.406 240.63 163.406 335.896C163.406 431.156 240.63 508.38 335.896 508.38C431.156 508.38 508.38 431.156 508.38 335.896C508.38 240.63 431.156 163.406 335.896 163.406Z" fill="white"/>
<path d="M555.505 156.594C555.505 178.854 537.458 196.901 515.193 196.901C492.932 196.901 474.885 178.854 474.885 156.594C474.885 134.328 492.932 116.286 515.193 116.286C537.458 116.286 555.505 134.328 555.505 156.594Z" fill="white"/>
</svg>
